<svg enable-background="new 0 0 512 512" viewBox="0 0 512 512" xmlns="http://www.w3.org/2000/svg"><path d="m491.318 235.318h-470.636c-11.422 0-20.682 9.26-20.682 20.682 0 11.423 9.26 20.682 20.682 20.682h470.636c11.423 0 20.682-9.259 20.682-20.682 0-11.422-9.259-20.682-20.682-20.682z"/><path d="m49.932 256 161.863-161.864c8.077-8.077 8.077-21.172 0-29.249-8.077-8.076-21.172-8.076-29.249 0l-176.488 176.488c-8.077 8.077-8.077 21.172 0 29.249l176.488 176.488c4.038 4.039 9.332 6.058 14.625 6.058s10.587-2.019 14.625-6.058c8.077-8.077 8.077-21.172 0-29.249z"/></svg>